<svg xmlns="http://www.w3.org/2000/svg" viewBox="0 0 32 32">
  <defs>
    <linearGradient id="grad" x1="0%" y1="0%" x2="100%" y2="100%">
      <stop offset="0%" style="stop-color:#A62D3F"/>
      <stop offset="100%" style="stop-color:#8B2332"/>
    </linearGradient>
  </defs>
  <!-- Background circle -->
  <circle cx="16" cy="16" r="15" fill="#121212"/>
  <!-- Outer ring -->
  <circle cx="16" cy="16" r="13" fill="none" stroke="url(#grad)" stroke-width="2"/>
  <!-- Aperture blades -->
  <g fill="url(#grad)">
    <path d="M16 5 L19 10 L16 10 Z" transform="rotate(0 16 16)"/>
    <path d="M16 5 L19 10 L16 10 Z" transform="rotate(60 16 16)"/>
    <path d="M16 5 L19 10 L16 10 Z" transform="rotate(120 16 16)"/>
    <path d="M16 5 L19 10 L16 10 Z" transform="rotate(180 16 16)"/>
    <path d="M16 5 L19 10 L16 10 Z" transform="rotate(240 16 16)"/>
    <path d="M16 5 L19 10 L16 10 Z" transform="rotate(300 16 16)"/>
  </g>
  <!-- Center circle -->
  <circle cx="16" cy="16" r="4" fill="#121212" stroke="url(#grad)" stroke-width="1.5"/>
</svg>
